<svg width="311" height="282" viewBox="0 0 311 282" fill="none" xmlns="http://www.w3.org/2000/svg">
<g clip-path="url(#clip0_10_88)">
<path d="M227.573 65.9811C227.515 67.0742 228.128 68.0926 229.111 68.5747C265.058 86.211 272.508 144.722 245.749 199.263C218.991 253.804 168.158 283.721 132.21 266.085C120.767 260.47 112.211 250.714 106.728 238.261C103.383 230.664 95.0984 225.961 86.9212 227.387C69.1117 230.492 53.2847 227.664 41.9276 217.974C11.4682 191.984 24.6959 126.474 71.4723 71.6539C118.249 16.8338 180.861 -6.53754 211.32 19.4525C223.419 29.7759 228.625 46.3342 227.573 65.9811Z" fill="#F8F8FA"/>
<mask id="mask0_10_88" style="mask-type:alpha" maskUnits="userSpaceOnUse" x="25" y="8" width="237" height="264">
<path d="M227.573 65.981C227.515 67.0741 228.128 68.0925 229.111 68.5746C265.058 86.2109 272.508 144.722 245.749 199.263C218.991 253.804 168.158 283.721 132.21 266.085C120.767 260.47 112.211 250.713 106.728 238.261C103.383 230.664 95.0984 225.961 86.9212 227.387C69.1117 230.492 53.2847 227.664 41.9276 217.973C11.4682 191.983 24.6959 126.474 71.4723 71.6538C118.249 16.8336 180.861 -6.53766 211.32 19.4524C223.419 29.7757 228.625 46.334 227.573 65.981Z" fill="white"/>
</mask>
<g mask="url(#mask0_10_88)">
<path d="M196.01 234.331V271.794H157.805L155.308 254.986L153.08 271.794H114.605L115.213 234.331H196.01Z" fill="#656970"/>
<path d="M160.236 41.3489C160.236 41.3489 172.184 57.0764 173.601 58.0214C172.251 58.5614 171.306 67.0664 171.306 67.0664C171.306 67.0664 165.771 85.6964 147.884 84.4814C130.064 81.8489 127.229 64.3664 127.229 64.3664L128.849 49.2464L160.574 41.3489" fill="#FFB49B"/>
<path d="M160.234 80.2288L161.111 92.9863L193.849 102.706L201.476 124.846L99.2812 113.439L103.466 107.296L137.486 92.2438L137.891 79.0813L160.234 80.2288Z" fill="#FFB49B"/>
<path d="M128.174 59.7764C128.174 71.9939 138.029 81.8489 150.246 81.8489C162.464 81.8489 171.306 71.8589 171.306 59.7089C171.306 47.5589 162.464 37.7039 150.246 37.7039C138.029 37.7039 128.174 47.5589 128.174 59.7764Z" fill="#FFB49B"/>
<path d="M172.723 67.5387C175.519 67.5387 177.785 65.0304 177.785 61.9362C177.785 58.8421 175.519 56.3337 172.723 56.3337C169.927 56.3337 167.66 58.8421 167.66 61.9362C167.66 65.0304 169.927 67.5387 172.723 67.5387Z" fill="#FFB49B"/>
<path d="M127.092 64.4338C129.963 64.4338 132.29 61.9254 132.29 58.8313C132.29 55.7371 129.963 53.2288 127.092 53.2288C124.222 53.2288 121.895 55.7371 121.895 58.8313C121.895 61.9254 124.222 64.4338 127.092 64.4338Z" fill="#FFB49B"/>
<path d="M168.807 52.2839C168.739 52.1489 168.672 52.0139 168.537 51.9464L168.604 51.6089L160.302 41.3489C160.302 41.3489 141.132 44.5214 132.694 46.8164C132.424 46.8839 130.467 53.2289 130.197 53.2964C129.252 53.4314 128.644 53.4989 128.442 53.5664L127.564 41.6864C127.564 41.6864 131.344 35.1389 138.027 30.3464C138.027 30.3464 150.784 21.4364 163.137 29.1314C163.137 29.1314 166.782 31.9664 167.187 34.8689L172.452 37.7039L173.262 56.3339L171.777 56.5364C171.439 56.2664 171.102 55.9964 170.764 55.6589C169.819 54.7139 169.144 53.5664 168.807 52.2839Z" fill="#A57867"/>
<path d="M161.584 55.3214L154.227 53.2964" stroke="#512E29" stroke-width="2" stroke-miterlimit="10" stroke-linecap="round" stroke-linejoin="round"/>
<path d="M143.226 51.7439C143.226 51.7439 139.176 51.1364 136.611 52.3514" stroke="#512E29" stroke-width="2" stroke-miterlimit="10" stroke-linecap="round" stroke-linejoin="round"/>
<path d="M157.766 59.4425C157.888 58.2183 157.265 57.1543 156.374 57.0659C155.484 56.9776 154.664 57.8983 154.542 59.1225C154.421 60.3467 155.044 61.4107 155.934 61.4991C156.825 61.5874 157.645 60.6667 157.766 59.4425Z" fill="#422512"/>
<path d="M142.057 57.7238C142.179 56.4996 141.556 55.4356 140.665 55.3473C139.775 55.2589 138.955 56.1797 138.833 57.4039C138.712 58.6281 139.335 59.6921 140.225 59.7805C141.116 59.8688 141.936 58.948 142.057 57.7238Z" fill="#422512"/>
<path d="M147.409 68.0787C148.354 68.1462 149.232 67.4037 149.299 66.4587L149.974 54.9837C150.042 54.0387 149.299 53.1612 148.354 53.0937C147.409 53.0262 146.532 53.7687 146.464 54.7137L145.789 66.1887C145.722 67.2012 146.464 68.0112 147.409 68.0787Z" fill="#D78156"/>
<path d="M154 71.9676L141.001 70.0002C141.001 70.0002 140.804 75.7682 146.86 75.9917C152.867 76.2153 154 71.9676 154 71.9676Z" fill="white"/>
<path d="M82 195.721L96.7825 110.806L136.675 91.8388L138.835 92.4463C145.855 94.4713 153.415 94.0663 160.165 91.1638L203.298 106.081L232 154L194.05 169.599L201.813 241.621L109.338 241.351L109.945 175.809L82 195.721Z" fill="#A6D5FF"/>
<path d="M148.809 160.557C148.809 160.557 151.655 159.464 153.162 160.331C154.67 161.198 156.857 169.755 151.146 168.643C145.435 167.531 145.002 162.574 148.809 160.557Z" fill="#FBCB43"/>
<path d="M155.123 163.233C155.123 163.233 157.969 162.14 159.477 163.007C160.985 163.874 163.171 172.431 157.46 171.319C151.75 170.207 151.316 165.25 155.123 163.233Z" fill="#EFA30A"/>
<path d="M154.727 157.56C154.727 157.56 157.573 156.467 159.08 157.334C160.588 158.201 162.775 166.758 157.064 165.646C151.353 164.534 150.92 159.577 154.727 157.56Z" fill="#EFA30A"/>
<path d="M158.328 154.696C158.328 154.696 161.174 153.603 162.682 154.47C164.19 155.337 166.376 163.893 160.665 162.781C154.955 161.669 154.521 156.712 158.328 154.696Z" fill="#EFA30A"/>
<path d="M165.282 155.355C165.282 155.355 168.127 154.262 169.635 155.129C171.143 155.996 173.329 164.553 167.619 163.441C161.908 162.329 161.455 157.372 165.282 155.355Z" fill="#FBCB43"/>
<path d="M160.777 161.104C160.777 161.104 163.623 160.011 165.131 160.878C166.639 161.745 168.825 170.301 163.115 169.189C157.404 168.077 156.97 163.12 160.777 161.104Z" fill="#FBCB43"/>
<path d="M165.113 160.482C165.113 160.482 167.959 159.389 169.467 160.256C170.975 161.123 173.161 169.679 167.45 168.567C161.74 167.455 161.306 162.498 165.113 160.482Z" fill="#EFA30A"/>
<path d="M150.467 154.206C150.467 154.206 153.313 153.112 154.821 153.979C156.328 154.846 158.515 163.403 152.804 162.291C147.093 161.16 146.66 156.241 150.467 154.206Z" fill="#FBCB43"/>
<path d="M146.453 167.38L171.332 167.964L170.879 172.506L146.924 171.809L146.453 167.38Z" fill="#CC9452"/>
<path d="M147.037 157.334H170.672L170.823 162.103L146.34 162.649L147.037 157.334Z" fill="#CC9452"/>
<path d="M143.891 152.811L144.305 171.809H148.998V152.811H143.891Z" fill="#CC9452"/>
<path d="M169.014 153.508L169.485 172.506H173.33L173.631 153.508H169.014Z" fill="#CC9452"/>
<path d="M214.168 119L221.375 191.66L102.834 206.11L94.1375 134.768L214.168 119Z" fill="#FFD9ED"/>
<path d="M216.833 187.093L157.956 157.643L108.817 200.26" fill="#FFD9ED"/>
<path d="M216.833 187.093L157.956 157.643L108.817 200.26" stroke="#FBA3BA" stroke-width="1.43039" stroke-miterlimit="10"/>
<path d="M212.002 126.066L159.142 172.857L97.9075 139.974" fill="#FFD9ED"/>
<path d="M212.002 126.066L159.142 172.857L97.9075 139.974" stroke="#FBA3BA" stroke-width="1.43039" stroke-miterlimit="10"/>
<path d="M158.022 158.015C158.022 158.015 164.519 145.203 171.132 148.76C177.745 152.317 173.202 174.074 158.023 181.385C158.023 181.385 143.864 174.882 142.464 156.882C141.321 142.219 157.054 147.878 158.022 158.015Z" fill="#D7144B"/>
<path d="M167.583 134.445L213.396 173.652L227.69 173.397L231.914 153.783L181.228 124.897L167.583 134.445Z" fill="#FFA587"/>
<path d="M181.231 124.894L154.208 112.049L140.359 115.262L134.375 122.102L134.688 123.458L136.238 124.001L143.118 119.098L147.825 118.819L139.685 126.244L138.757 137.113L141.281 139.538L145.323 137.568L149.531 130.694L163.358 132.341L167.583 134.445L181.231 124.894Z" fill="#FFA587"/>
<path d="M157.533 210.166L82 195.721L83.6875 183.436L98.875 175.066L152.538 195.991L161.043 193.494L171.978 194.034L174.543 197.206L182.71 194.709L188.245 187.149L191.148 187.824L188.448 204.024L171.64 211.651L157.533 210.166Z" fill="#FFA587"/>
</g>
</g>
<defs>
<clipPath id="clip0_10_88">
<rect width="311" height="282" fill="white"/>
</clipPath>
</defs>
</svg>
